<svg width="221" height="37" viewBox="0 0 221 37" fill="none" xmlns="http://www.w3.org/2000/svg">
<path d="M18.7876 12.2838C18.2415 12.2838 17.7845 12.4699 17.4085 12.8475C17.0405 13.2318 16.8572 13.6924 16.8572 14.2307C16.8572 14.9858 17.2119 15.5482 17.9293 15.9205C18.1778 16.0611 19.2193 16.3677 21.0421 16.8604C22.5154 17.2835 23.6141 17.8406 24.3315 18.5248C25.3611 19.517 25.8752 20.9189 25.8752 22.7506C25.8752 24.5488 25.2469 26.0913 23.9821 27.3781C22.7001 28.6515 21.1696 29.2928 19.3841 29.2928H14.5256C13.9225 29.2928 13.3951 29.0679 12.9447 28.6207C12.4996 28.1909 12.2778 27.6593 12.2778 27.0259V26.9871C12.2778 26.3605 12.4996 25.8222 12.9447 25.375C13.3951 24.9197 13.9225 24.6961 14.5256 24.6961H19.5687C20.1148 24.6961 20.5718 24.51 20.9464 24.1324C21.3211 23.7615 21.5057 23.2942 21.5057 22.7506C21.5057 22.0583 21.1497 21.5402 20.4456 21.188C20.2609 21.105 19.2193 20.7917 17.3195 20.2534C15.8409 19.8182 14.7422 19.2425 14.0235 18.5248C12.9952 17.5138 12.481 16.0798 12.481 14.2307C12.481 12.4311 13.1161 10.8953 14.3795 9.62056C15.6562 8.3338 17.1867 7.68842 18.9709 7.68842H22.4011C23.0176 7.68842 23.5503 7.91202 24.002 8.36058C24.4458 8.8145 24.6689 9.35277 24.6689 9.97271V10.0115C24.6689 10.6516 24.4458 11.1832 24.002 11.6049C23.5503 12.0602 23.0176 12.2838 22.4011 12.2838H18.7876ZM39.5684 7.68842C42.5217 7.68842 45.0499 8.74487 47.1463 10.8564C49.2414 12.9693 50.2896 15.5161 50.2896 18.4873V27.0259C50.2896 27.6593 50.0677 28.1909 49.6227 28.6207C49.1723 29.0679 48.6449 29.2928 48.0417 29.2928H47.9846C47.3748 29.2928 46.8474 29.0679 46.4023 28.6207C45.952 28.1909 45.7301 27.6593 45.7301 27.0259C44.3192 28.5363 42.2613 29.2928 39.5684 29.2928C36.6217 29.2928 34.0935 28.2364 31.9984 26.1235C29.902 24.0119 28.8538 21.4638 28.8538 18.4873C28.8538 15.5161 29.902 12.9693 31.9984 10.8564C34.0935 8.74487 36.6217 7.68842 39.5684 7.68842ZM39.5684 12.2838C37.8599 12.2838 36.3998 12.8863 35.1989 14.1021C34.0045 15.3126 33.4146 16.7774 33.4146 18.4873C33.4146 20.2159 34.0045 21.6807 35.1989 22.8979C36.3998 24.0949 37.8599 24.6961 39.5684 24.6961C41.2835 24.6961 42.7382 24.0949 43.9259 22.8979C45.1323 21.6807 45.7301 20.2159 45.7301 18.4873C45.7301 16.7774 45.1323 15.3126 43.9259 14.1021C42.725 12.8863 41.2715 12.2838 39.5684 12.2838ZM57.0093 7.68842C57.6377 7.68842 58.1651 7.91202 58.5902 8.36058C59.0353 8.8145 59.2572 9.35277 59.2572 9.97271V27.0259C59.2572 27.6593 59.0353 28.1909 58.5902 28.6207C58.1651 29.0679 57.6377 29.2928 57.0093 29.2928H56.9708C56.349 29.2928 55.8149 29.0679 55.3712 28.6207C54.9262 28.1909 54.6976 27.6593 54.6976 27.0259V9.97271C54.6976 9.35277 54.9262 8.8145 55.3712 8.36058C55.8149 7.91202 56.349 7.68842 56.9708 7.68842H57.0093ZM56.9907 5.2488C56.2666 5.2488 55.6568 4.99305 55.148 4.48022C54.6405 3.96873 54.3868 3.34745 54.3868 2.6244C54.3868 1.9134 54.6405 1.30015 55.148 0.78732C55.6568 0.27583 56.2666 0.0187457 56.9907 0.0187457C57.6948 0.0187457 58.3046 0.27583 58.8134 0.78732C59.3342 1.28676 59.5946 1.90135 59.5946 2.6244C59.5946 3.36084 59.3342 3.98212 58.8134 4.48022C58.3046 4.99305 57.6948 5.2488 56.9907 5.2488ZM68.2832 29.574C69.5094 31.462 71.364 32.4033 73.847 32.4033C75.3961 32.4033 76.7937 31.7954 78.0518 30.5662C79.3538 29.3183 80.0008 27.8588 80.0008 26.2011C78.5912 28.2618 76.5333 29.2928 73.847 29.2928C70.8937 29.2928 68.3655 28.2364 66.2691 26.1235C64.174 24.0119 63.1258 21.4638 63.1258 18.4873C63.1258 15.5161 64.174 12.9693 66.2691 10.8564C68.3655 8.74487 70.8937 7.68842 73.847 7.68842C76.7871 7.68842 79.302 8.73817 81.3984 10.8377C83.4948 12.9238 84.5483 15.4652 84.5616 18.4551V26.2011C84.5616 29.1255 83.4377 31.6735 81.1951 33.8494C79.023 35.9502 76.5718 37 73.847 37C69.6608 37 66.5295 35.3611 64.4464 32.09C64.1993 31.699 64.0717 31.296 64.0717 30.8862C64.0717 30.6372 64.1169 30.3868 64.2059 30.1377C64.4278 29.4334 64.8848 28.9594 65.5836 28.7104L65.6407 28.6903C65.9463 28.5818 66.2439 28.5243 66.5295 28.5243C67.2283 28.5243 67.8062 28.8764 68.2832 29.574ZM80.0008 18.3775C79.9755 16.6877 79.3657 15.255 78.1594 14.0633C76.9717 12.8796 75.5303 12.2838 73.847 12.2838C72.1319 12.2838 70.6772 12.8863 69.4709 14.1021C68.2832 15.3126 67.6867 16.7774 67.6867 18.4873C67.6867 20.2159 68.2832 21.6807 69.4709 22.8979C70.6772 24.0949 72.1319 24.6961 73.847 24.6961C75.5555 24.6961 77.0103 24.0949 78.198 22.8979C79.4043 21.6807 80.0008 20.2159 80.0008 18.4873V18.3775ZM98.4447 12.3226C96.7309 12.3226 95.2762 12.9238 94.0699 14.141C92.8822 15.3501 92.2843 16.8229 92.2843 18.5449C92.2843 20.2601 92.8822 21.7196 94.0699 22.9354C95.2762 24.1458 96.7309 24.7537 98.4447 24.7537C100.141 24.7537 101.596 24.1458 102.796 22.9354C104.003 21.7196 104.6 20.2601 104.6 18.5449C104.6 16.8229 104.003 15.3501 102.796 14.141C101.596 12.9238 100.141 12.3226 98.4447 12.3226ZM98.4447 7.68842C101.393 7.68842 103.92 8.74487 106.016 10.8564C108.112 12.9693 109.159 15.5161 109.159 18.4873C109.159 21.4638 108.112 24.0119 106.016 26.1235C103.92 28.2364 101.393 29.2928 98.4447 29.2928C95.4914 29.2928 92.9645 28.2364 90.8681 26.1235C88.7717 24.0119 87.7248 21.4638 87.7248 18.4873C87.7248 15.5161 88.7717 12.9693 90.8681 10.8564C92.9645 8.74487 95.4914 7.68842 98.4447 7.68842ZM116.883 27.0259C116.883 27.6593 116.66 28.1909 116.21 28.6207C115.765 29.0679 115.239 29.2928 114.629 29.2928H114.572C113.967 29.2928 113.441 29.0679 112.989 28.6207C112.546 28.1909 112.323 27.6593 112.323 27.0259V16.7654C112.323 14.2615 113.206 12.1245 114.965 10.3516C116.724 8.5775 118.846 7.68842 121.329 7.68842C123.8 7.68842 125.915 8.5775 127.674 10.3516C129.434 12.1245 130.316 14.2615 130.316 16.7654V27.0259C130.316 27.6593 130.094 28.1909 129.649 28.6207C129.224 29.0679 128.697 29.2928 128.068 29.2928H128.03C127.408 29.2928 126.874 29.0679 126.429 28.6207C125.978 28.1909 125.757 27.6593 125.757 27.0259V16.7654C125.757 15.5295 125.33 14.473 124.473 13.596C123.603 12.719 122.555 12.2838 121.329 12.2838C120.09 12.2838 119.036 12.719 118.167 13.596C117.308 14.473 116.883 15.5295 116.883 16.7654V27.0259ZM144.753 24.6573C146.455 24.6573 147.91 24.0561 149.109 22.8403C150.316 21.6299 150.914 20.1637 150.914 18.4551C150.914 16.7265 150.316 15.2603 149.109 14.0445C147.922 12.8475 146.467 12.2463 144.753 12.2463C143.045 12.2463 141.583 12.8475 140.384 14.0445C139.189 15.2603 138.598 16.7265 138.598 18.4551C138.598 20.1637 139.189 21.6299 140.384 22.8403C141.583 24.0561 143.045 24.6573 144.753 24.6573ZM136.286 37C135.683 37 135.156 36.7751 134.706 36.3278C134.26 35.8726 134.039 35.341 134.039 34.7331V18.4551C134.051 15.4652 135.105 12.9238 137.201 10.8377C139.284 8.73817 141.805 7.68842 144.753 7.68842C147.707 7.68842 150.233 8.74487 152.33 10.8564C154.426 12.9693 155.473 15.5161 155.473 18.4873C155.473 21.4638 154.426 24.0119 152.33 26.1235C150.233 28.2364 147.707 29.2928 144.753 29.2928C142.054 29.2928 139.996 28.6649 138.598 27.4169V34.7331C138.598 35.341 138.376 35.8726 137.925 36.3278C137.481 36.7751 136.953 37 136.344 37H136.286ZM161.685 0C162.295 0 162.823 0.218254 163.266 0.653422C163.718 1.10734 163.94 1.6456 163.94 2.26555V27.0259C163.94 27.6593 163.718 28.1909 163.266 28.6207C162.823 29.0679 162.295 29.2928 161.685 29.2928H161.635C161.025 29.2928 160.498 29.0679 160.053 28.6207C159.602 28.1909 159.38 27.6593 159.38 27.0259V2.26555C159.38 1.6456 159.602 1.10734 160.053 0.653422C160.498 0.218254 161.025 0 161.635 0H161.685ZM179.12 7.68842C182.073 7.68842 184.601 8.74487 186.696 10.8564C188.793 12.9693 189.841 15.5161 189.841 18.4873V27.0259C189.841 27.6593 189.619 28.1909 189.174 28.6207C188.723 29.0679 188.196 29.2928 187.593 29.2928H187.534C186.926 29.2928 186.399 29.0679 185.953 28.6207C185.503 28.1909 185.28 27.6593 185.28 27.0259C183.87 28.5363 181.812 29.2928 179.12 29.2928C176.173 29.2928 173.645 28.2364 171.548 26.1235C169.453 24.0119 168.405 21.4638 168.405 18.4873C168.405 15.5161 169.453 12.9693 171.548 10.8564C173.645 8.74487 176.173 7.68842 179.12 7.68842ZM179.12 12.2838C177.411 12.2838 175.95 12.8863 174.75 14.1021C173.556 15.3126 172.966 16.7774 172.966 18.4873C172.966 20.2159 173.556 21.6807 174.75 22.8979C175.95 24.0949 177.411 24.6961 179.12 24.6961C180.835 24.6961 182.289 24.0949 183.477 22.8979C184.683 21.6807 185.28 20.2159 185.28 18.4873C185.28 16.7774 184.683 15.3126 183.477 14.1021C182.276 12.8863 180.821 12.2838 179.12 12.2838ZM198.123 19.8249C198.123 21.0608 198.548 22.1159 199.406 22.9929C200.275 23.8646 201.33 24.3051 202.568 24.3051C203.782 24.3051 204.824 23.8646 205.693 22.9929C206.563 22.1159 206.996 21.0608 206.996 19.8249V9.97271C206.996 9.35277 207.218 8.8145 207.668 8.36058C208.113 7.91202 208.647 7.68842 209.269 7.68842H209.308C209.936 7.68842 210.463 7.91202 210.889 8.36058C211.334 8.8145 211.556 9.35277 211.556 9.97271V27.9231C211.556 30.4002 210.635 32.5372 208.787 34.3368C206.983 36.1096 204.912 37 202.568 37C200.708 37 199.012 36.5381 197.488 35.6101C196.001 34.7144 194.871 33.5039 194.103 31.9936C193.931 31.6548 193.842 31.3147 193.842 30.9826C193.842 30.6947 193.905 30.4055 194.026 30.1176C194.274 29.4656 194.712 29.0358 195.328 28.8255L195.405 28.7867C195.677 28.697 195.944 28.6515 196.204 28.6515C196.478 28.6515 196.744 28.7037 197.004 28.8055C197.513 29.017 197.901 29.3759 198.161 29.8753C198.555 30.6238 199.151 31.2317 199.946 31.6923C200.752 32.1663 201.629 32.4033 202.568 32.4033C203.75 32.4033 204.779 31.9681 205.656 31.0911C206.551 30.1953 206.996 29.1389 206.996 27.9231V27.7758C206.017 28.5109 204.544 28.8764 202.568 28.8764C200.085 28.8764 197.963 27.9927 196.204 26.2199C194.445 24.4524 193.562 22.3208 193.562 19.8249V9.97271C193.562 9.35277 193.785 8.8145 194.229 8.36058C194.681 7.91202 195.208 7.68842 195.811 7.68842H195.868C196.478 7.68842 197.004 7.91202 197.449 8.36058C197.901 8.8145 198.123 9.35277 198.123 9.97271V19.8249Z" fill="white"/>
</svg>
